<svg xmlns="http://www.w3.org/2000/svg" width="20.99" height="22.016" viewBox="0 0 20.99 22.016">
    <defs>
        <style>
            .cls-1{fill:#7e7e7e}
        </style>
    </defs>
    <g id="noun_coursework_2225048" transform="translate(-2.987)">
        <path id="Path_5082" d="M86.408 52.816A2.408 2.408 0 1 0 84 50.408a2.408 2.408 0 0 0 2.408 2.408zm-.908-2.752a.344.344 0 0 1 .483.043l.122.144.115-.022.688-.458a.344.344 0 0 1 .382.571l-1.032.688a.335.335 0 0 1-.459-.058l-.344-.416a.344.344 0 0 1 .045-.492z" class="cls-1" data-name="Path 5082" transform="translate(-67.078 -39.744)"/>
        <path id="Path_5083" d="M14.805 77h-.313a.86.86 0 0 0-.783.556l-.132.382a.573.573 0 0 0 .556.783h1.032a.573.573 0 0 0 .556-.783l-.132-.382a.86.86 0 0 0-.784-.556z" class="cls-1" data-name="Path 5083" transform="translate(-8.735 -63.756)"/>
        <path id="Path_5084" d="M26.25 30.72l4.91 1.38a1.233 1.233 0 0 0 1.613-.688 1.175 1.175 0 0 0-.012-.925 1.28 1.28 0 0 0-.7-.671l-.034-.01-2.831-.74.091-.678a.347.347 0 1 0-.688-.091l-.131.979a.344.344 0 0 0 .255.378l3.1.81a.607.607 0 0 1 .3.3.494.494 0 0 1 0 .394.566.566 0 0 1-.745.287l-.029-.01-4.666-1.3V28.04a2.78 2.78 0 0 1 2.121-2.752 3.849 3.849 0 0 1-.31-.628A3.476 3.476 0 0 0 26 28.04v2.355a.344.344 0 0 0 .25.325z" class="cls-1" data-name="Path 5084" transform="translate(-19.053 -20.419)"/>
        <path id="Path_5085" d="M45.645 5.848a2.277 2.277 0 0 0 .516-.058 2.843 2.843 0 0 0 1.914-3.44A2.8 2.8 0 0 0 45.473 0a2.274 2.274 0 0 0-.516.058A2.843 2.843 0 0 0 43.043 3.5a2.8 2.8 0 0 0 2.602 2.348z" class="cls-1" data-name="Path 5085" transform="translate(-33.11)"/>
        <path id="Path_5086" d="M70 44.344v.688a.344.344 0 0 0 .688 0v-.688a.344.344 0 0 0-.688 0z" class="cls-1" data-name="Path 5086" transform="translate(-55.486 -36.432)"/>
        <path id="Path_5087" d="M75.579 28.661v1.1a3.122 3.122 0 0 1 .688-.638v-.463a3.5 3.5 0 0 0-2.136-3.251 3.654 3.654 0 0 1-.3.617 2.8 2.8 0 0 1 1.748 2.635z" class="cls-1" data-name="Path 5087" transform="translate(-58.658 -21.04)"/>
        <path id="Path_5088" d="M33.48 109.784a.344.344 0 0 0 .344-.344V106H18v3.44a.344.344 0 1 0 .688 0v-1.376h14.448v1.376a.344.344 0 0 0 .344.344z" class="cls-1" data-name="Path 5088" transform="translate(-12.43 -87.768)"/>
        <path id="Path_5089" d="M3.253 65.947H5.57v1.376h15.824v-1.376h2.319a.232.232 0 0 0 .241-.334l-1.344-4.146a.554.554 0 0 0-.277-.28 3.075 3.075 0 0 1-.292.753l1.073 3.32H3.85l1.127-3.44h3.1l-.6 1.964a.344.344 0 0 0 .464.416 5.626 5.626 0 0 1 2.195-.468 4.178 4.178 0 0 1 1.969.449.356.356 0 0 0 .344 0 4.1 4.1 0 0 1 1.964-.445 5.626 5.626 0 0 1 2.195.468.353.353 0 0 0 .445-.148.456.456 0 0 0 .04-.172.344.344 0 0 0-.031-.144l-.86-2.824a.344.344 0 0 0-.114-.172 3.376 3.376 0 0 0-1.615-.623 1.875 1.875 0 0 1-.043.688 2.821 2.821 0 0 1 1.149.415l.635 2.1a6.089 6.089 0 0 0-1.8-.28 5.251 5.251 0 0 0-1.792.311v-1.097a2.064 2.064 0 0 1-.688-.095v1.2a5.251 5.251 0 0 0-1.8-.308 6.089 6.089 0 0 0-1.8.28l.456-1.512h1.94l-2.442-.688H4.87a.573.573 0 0 0-.5.335l-1.358 4.144a.232.232 0 0 0 .241.334z" class="cls-1" data-name="Path 5089" transform="translate(0 -49.779)"/>
    </g>
</svg>
